<svg id="SvgjsSvg1054" width="100%" height="100%" xmlns="http://www.w3.org/2000/svg" version="1.1" xlink="http://www.w3.org/1999/xlink" xmlns:svgjs="http://svgjs.com/svgjs" preserveAspectRatio="xMidYMid meet" viewBox="8.77883721273065e-8 0.0000028766985451511573 300 79.64396667480469" overflow="visible"><defs id="SvgjsDefs1055"></defs><g id="SvgjsG1056" transform="scale(0.9163747990888846)" opacity="1"><g id="SvgjsG1057" class="iVUWbrfQE" transform="translate(-4.4510778397688044, -21.701361143966515) scale(0.2606782501503495)" light-content="false" non-strokable="false" fill="#107f44"><path d="M152.9 348.8C118.3 318 83.6 287.1 49 256.2c-5-4.4-10-8.9-14.9-13.3V257c34.6-30.9 69.3-61.7 103.9-92.6 5-4.4 10-8.9 14.9-13.3 9.6-8.6-4.6-22.7-14.1-14.1-34.6 30.9-69.3 61.7-103.9 92.6-5 4.4-10 8.9-14.9 13.3-3.9 3.5-3.9 10.7 0 14.1 34.6 30.9 69.3 61.7 103.9 92.6 5 4.4 10 8.9 14.9 13.3 9.6 8.6 23.7-5.5 14.1-14.1zM361.2 363c34.6-30.9 69.3-61.7 103.9-92.6 5-4.4 10-8.9 14.9-13.3 3.9-3.5 3.9-10.7 0-14.1-34.6-30.9-69.3-61.7-103.9-92.6-5-4.4-10-8.9-14.9-13.3-9.6-8.5-23.8 5.6-14.1 14.1 34.6 30.9 69.3 61.7 103.9 92.6 5 4.4 10 8.9 14.9 13.3V243c-34.6 30.9-69.3 61.7-103.9 92.6-5 4.4-10 8.9-14.9 13.3-9.6 8.5 4.5 22.6 14.1 14.1zM300.5 90.6l-40.8 106.2c-21.5 56.1-43.1 112.2-64.6 168.3-5 13-10 25.9-14.9 38.9-1.9 5 2.1 11 7 12.3 5.6 1.5 10.4-1.9 12.3-7l40.8-106.2c21.5-56.1 43.1-112.2 64.6-168.3 5-13 10-25.9 14.9-38.9 1.9-5-2.1-11-7-12.3-5.6-1.5-10.3 2-12.3 7z"></path></g><g id="SvgjsG1058" class="text" transform="translate(238.07696381324254, 60.8860001525879) scale(1)" light-content="false" fill="#080808"><path d="M-86.92 1.82C-88.29 3.14 -89.86 4.14 -91.64 4.8L-89.38 9.73C-87.57 9.67 -85.58 9.16 -83.42 8.19C-81.26 7.22 -79.34 5.81 -77.64 3.96C-75.94 2.1 -74.84 -0.11 -74.36 -2.67C-74.12 -3.86 -73.96 -5.15 -73.89 -6.55C-73.81 -7.94 -73.77 -9.57 -73.77 -11.43L-73.8 -17.96L-73.8 -44.59L-83.17 -44.59L-83.17 -17.81C-83.17 -14.32 -83.24 -11.43 -83.36 -9.16C-83.49 -6.88 -83.74 -4.97 -84.11 -3.43C-84.62 -1.26 -85.56 0.49 -86.92 1.82Z M-26.63 0L-28.54 -3.22C-30.47 -6.56 -32.92 -10.67 -35.89 -15.54C-38.86 -20.42 -40.99 -23.81 -42.28 -25.72L-27.22 -44.59L-37.47 -44.59L-53.14 -24.84L-53.14 -44.59L-62.46 -44.59L-62.46 0L-53.14 0L-53.14 -13.74L-48.54 -18.93C-47 -16.7 -45.37 -14.2 -43.64 -11.43C-41.91 -8.65 -40.31 -5.95 -38.85 -3.31C-38.59 -2.88 -38.39 -2.52 -38.23 -2.23C-38.08 -1.93 -37.95 -1.69 -37.85 -1.49C-37.5 -0.81 -37.22 -0.31 -37 0Z M-15.82 -44.59L-25.81 -44.59L-9.23 0.18L-1.32 0.18L15.09 -44.59L5.16 -44.59L-2.72 -20.24L-5.13 -11.75L-7.5 -20.24Z M30.21 -44.59L20.83 -44.59L20.83 0L30.21 0Z M55.99 -44.59L42.89 -44.59L38.14 0.03L46.79 0L48.69 -23.91L49.75 -37.56L53.06 -23.91L60.12 0.44L67.5 0.44L73.89 -23.91L77.17 -37.56L77.96 -23.91L80.16 0L89.3 0L83.96 -44.59L71.25 -44.59L65.89 -21.15L64.19 -11.31L61.93 -21.15Z"></path></g></g></svg>